<svg width="154" height="154" viewBox="0 0 154 154" fill="none" xmlns="http://www.w3.org/2000/svg">
<rect opacity="0.1" width="154" height="154" fill="#5B8AC6"/>
<path d="M66.2917 90.625H86.7083C87.4819 90.625 88.2237 90.3177 88.7707 89.7707C89.3177 89.2237 89.625 88.4819 89.625 87.7083V67.2917C89.625 66.5181 89.3177 65.7763 88.7707 65.2293C88.2237 64.6823 87.4819 64.375 86.7083 64.375H66.2917C65.5181 64.375 64.7763 64.6823 64.2293 65.2293C63.6823 65.7763 63.375 66.5181 63.375 67.2917V87.7083C63.375 88.4819 63.6823 89.2237 64.2293 89.7707C64.7763 90.3177 65.5181 90.625 66.2917 90.625ZM70.6667 80.4167L74.1127 83.8627L79.4167 76.0417L86.7083 86.25H66.2917L70.6667 80.4167Z" fill="#5B8AC6"/>
</svg>
